# xmcd CD database file
#
# Track frame offsets:
#	150
#	13804
#	29799
#	51976
#	69865
#	82041
#	102235
#	113729
#	133694
#	150824
#	167079
#	184260
#	202550
#	225944
#	250597
#	268278
#	290684
#	297308
#
# Disc length: 4271 seconds
#
# Revision: 2
# Processed by: cddbd v1.5.2PL0 Copyright (c) Steve Scherf et al.
# Submitted via: CDex 1.51
#
DISCID=f810ad12
DTITLE=Lightnin' Hopkins - Mojo Hand
DYEAR=1900
DGENRE=Blues
TTITLE0=Mojo Hand
TTITLE1=Coffee For Mama
TTITLE2=Awful Dream
TTITLE3=Black Mare Trot
TTITLE4=Have You Ever Loved A Woman
TTITLE5=Glory Bee
TTITLE6=Sometimes She Will
TTITLE7=Shine On, Moon!
TTITLE8=Santa
TTITLE9=How Long Has The Train Been Gone
TTITLE10=Bring Me My Shotgun
TTITLE11=Shake That Thing
TTITLE12=Last Night
TTITLE13=Walk A Long Time
TTITLE14=I'm Leaving With You Now
TTITLE15=Houston Bound
TTITLE16=Just Pickin'
TTITLE17=Baby I Don't Care
EXTD=
EXTT0=
EXTT1=
EXTT2=
EXTT3=
EXTT4=
EXTT5=
EXTT6=
EXTT7=
EXTT8=
EXTT9=
EXTT10=
EXTT11=
EXTT12=
EXTT13=
EXTT14=
EXTT15=
EXTT16=
EXTT17=
PLAYORDER=
